<svg preserveAspectRatio="none" overflow="visible" style="display: block;" width="35.25" height="36.75" viewBox="0 0 35.25 36.75" fill="none" xmlns="http://www.w3.org/2000/svg">
<g id="Logomark wrapper" filter="url(#filter0_d_0_286)">
<path id="Vector" d="M9.75 17.25C9.75 13.1079 13.1079 9.75 17.25 9.75C21.3921 9.75 24.75 13.1079 24.75 17.25L31.5 17.25C31.5 9.37994 25.1201 3 17.25 3C9.37994 3 3 9.37994 3 17.25C3 25.1201 9.37994 31.5 17.25 31.5L17.25 24.75C13.1079 24.75 9.75 21.3921 9.75 17.25Z" fill="url(#paint0_linear_0_286)"/>
<path id="Vector_2" opacity="0.5" d="M24.75 17.25C24.75 21.3921 28.1079 24.75 32.25 24.75V31.5C24.3799 31.5 18 25.1201 18 17.25H24.75Z" fill="url(#paint1_linear_0_286)"/>
</g>
<defs>
<filter id="filter0_d_0_286" x="0" y="-0.75" width="35.25" height="42" filterUnits="userSpaceOnUse" color-interpolation-filters="sRGB">
<feFlood flood-opacity="0" result="BackgroundImageFix"/>
<feColorMatrix in="SourceAlpha" type="matrix" values="0 0 0 0 0 0 0 0 0 0 0 0 0 0 0 0 0 0 127 0" result="hardAlpha"/>
<feMorphology radius="1.5" operator="erode" in="SourceAlpha" result="effect1_dropShadow_0_286"/>
<feOffset dy="2.25"/>
<feGaussianBlur stdDeviation="2.25"/>
<feComposite in2="hardAlpha" operator="out"/>
<feColorMatrix type="matrix" values="0 0 0 0 0.141176 0 0 0 0 0.141176 0 0 0 0 0.141176 0 0 0 0.1 0"/>
<feBlend mode="normal" in2="BackgroundImageFix" result="effect1_dropShadow_0_286"/>
<feBlend mode="normal" in="SourceGraphic" in2="effect1_dropShadow_0_286" result="shape"/>
</filter>
<linearGradient id="paint0_linear_0_286" x1="17.25" y1="3" x2="17.25" y2="31.5" gradientUnits="userSpaceOnUse">
<stop stop-color="white" stop-opacity="0.8"/>
<stop offset="1" stop-color="white" stop-opacity="0.5"/>
</linearGradient>
<linearGradient id="paint1_linear_0_286" x1="25.125" y1="17.25" x2="25.125" y2="31.5" gradientUnits="userSpaceOnUse">
<stop stop-color="white" stop-opacity="0.8"/>
<stop offset="1" stop-color="white" stop-opacity="0.5"/>
</linearGradient>
</defs>
</svg>
