<svg preserveAspectRatio="none" overflow="visible" style="display: block;" width="17.6933" height="17.6933" viewBox="0 0 17.6933 17.6933" fill="none" xmlns="http://www.w3.org/2000/svg">
<path id="Icon" d="M7.60214 10.0911L16.3521 1.34114M7.70846 10.3645L9.89855 15.9962C10.0915 16.4923 10.188 16.7404 10.327 16.8128C10.4475 16.8756 10.591 16.8757 10.7116 16.813C10.8507 16.7408 10.9474 16.4928 11.1409 15.9969L16.6329 1.9238C16.8076 1.47615 16.8949 1.25233 16.8471 1.1093C16.8057 0.985095 16.7082 0.887621 16.584 0.846128C16.4409 0.798348 16.2171 0.885694 15.7695 1.06039L1.69635 6.55234C1.20046 6.74586 0.952511 6.84262 0.880253 6.9817C0.817614 7.10228 0.817698 7.24582 0.880479 7.36632C0.952901 7.50532 1.20096 7.60179 1.69708 7.79472L7.32875 9.98482C7.42946 10.024 7.47981 10.0436 7.52221 10.0738C7.5598 10.1006 7.59266 10.1335 7.61947 10.1711C7.64971 10.2135 7.66929 10.2638 7.70846 10.3645Z" stroke="#3B82F6" stroke-width="1.66667" stroke-linecap="round" stroke-linejoin="round"/>
</svg>
